<svg preserveAspectRatio="none" overflow="visible" style="display: block;" width="16" height="16" viewBox="0 0 16 16" fill="none" xmlns="http://www.w3.org/2000/svg">
<g id="Icons">
<path id="Union" d="M3.90918 8.63672C4.2605 8.63677 4.54575 8.92116 4.5459 9.27246C4.5459 9.62389 4.26059 9.90913 3.90918 9.90918V11.1816C3.90918 11.4073 3.84831 11.6264 3.7373 11.8184C3.84814 12.0102 3.9091 12.2287 3.90918 12.4541V13.7275C4.26047 13.7276 4.54571 14.012 4.5459 14.3633C4.5459 14.7147 4.26059 15 3.90918 15C3.57163 15 3.24747 14.8656 3.00879 14.627C2.77036 14.3884 2.63679 14.0648 2.63672 13.7275V12.4541C2.28532 12.4541 2.0001 12.1697 2 11.8184C2 11.4669 2.28526 11.1816 2.63672 11.1816V9.90918C2.63672 9.57163 2.77011 9.24747 3.00879 9.00879C3.24747 8.77011 3.57163 8.63672 3.90918 8.63672ZM6.4541 8.63672C6.79157 8.63672 7.11583 8.77022 7.35449 9.00879C7.59317 9.24747 7.72754 9.57163 7.72754 9.90918V11.1816C8.07887 11.1818 8.36328 11.467 8.36328 11.8184C8.36319 12.1696 8.07881 12.454 7.72754 12.4541V13.7275C7.72747 14.0649 7.59303 14.3883 7.35449 14.627C7.11581 14.8656 6.79165 15 6.4541 15C6.10285 14.9998 5.81836 14.7146 5.81836 14.3633C5.81855 14.0121 6.10297 13.7278 6.4541 13.7275V12.4541C6.45418 12.2288 6.5152 12.0101 6.62598 11.8184C6.51507 11.6264 6.4541 11.4072 6.4541 11.1816V9.90918C6.10285 9.90894 5.81836 9.62377 5.81836 9.27246C5.8185 8.92128 6.10294 8.63696 6.4541 8.63672ZM9.6543 1.00098C9.93322 1.00279 10.2089 1.05838 10.4668 1.16504C10.7304 1.27413 10.9704 1.43376 11.1719 1.63574L13.4541 3.91797L13.5283 3.99512C13.6961 4.17969 13.8302 4.39305 13.9258 4.62402C14.0347 4.88731 14.0913 5.16918 14.0908 5.4541V13.0908C14.0908 13.5971 13.8893 14.0824 13.5312 14.4404C13.1732 14.7984 12.6879 15 12.1816 15H9.63672C9.28526 15 9 14.7147 9 14.3633C9.00019 14.012 9.28538 13.7275 9.63672 13.7275H12.1816C12.3504 13.7275 12.5125 13.6603 12.6318 13.541C12.7512 13.4217 12.8184 13.2596 12.8184 13.0908V6.09082H10.2725C9.93501 6.09075 9.61167 5.95639 9.37305 5.71777C9.13443 5.47914 9.00005 5.15582 9 4.81836V2.27246H4.5459C4.37721 2.27246 4.21503 2.33976 4.0957 2.45898C3.97636 2.57832 3.90918 2.74041 3.90918 2.90918V6.72754C3.90904 7.07887 3.62383 7.36328 3.27246 7.36328C2.92122 7.36314 2.63686 7.07878 2.63672 6.72754V2.90918C2.63672 2.40301 2.83748 1.91756 3.19531 1.55957C3.55334 1.20155 4.03958 1 4.5459 1H9.63672L9.6543 1.00098ZM10.2725 4.81836H12.5547L10.2725 2.53613V4.81836Z" fill="#5E5E5E"/>
</g>
</svg>
